<?xml version="1.0" encoding="UTF-8" standalone="no"?>
<!-- Generator: Adobe Illustrator 18.1.1, SVG Export Plug-In . SVG Version: 6.00 Build 0)  -->

<svg
   xmlns:dc="http://purl.org/dc/elements/1.1/"
   xmlns:cc="http://creativecommons.org/ns#"
   xmlns:rdf="http://www.w3.org/1999/02/22-rdf-syntax-ns#"
   xmlns:svg="http://www.w3.org/2000/svg"
   xmlns="http://www.w3.org/2000/svg"
   xmlns:sodipodi="http://sodipodi.sourceforge.net/DTD/sodipodi-0.dtd"
   xmlns:inkscape="http://www.inkscape.org/namespaces/inkscape"
   version="1.1"
   id="Layer_1"
   x="0px"
   y="0px"
   viewBox="0 0 274.67818 137.5"
   enable-background="new 0 0 389.2 137.5"
   xml:space="preserve"
   sodipodi:docname="MESA_logo_white_small.svg"
   inkscape:version="0.92.2 (unknown)"
   width="274.67819"
   height="137.5"><metadata
     id="metadata141"><rdf:RDF><cc:Work
         rdf:about=""><dc:format>image/svg+xml</dc:format><dc:type
           rdf:resource="http://purl.org/dc/dcmitype/StillImage" /><dc:title></dc:title></cc:Work></rdf:RDF></metadata><defs
     id="defs139" /><sodipodi:namedview
     pagecolor="#ffffff"
     bordercolor="#666666"
     borderopacity="1"
     objecttolerance="10"
     gridtolerance="10"
     guidetolerance="10"
     inkscape:pageopacity="0"
     inkscape:pageshadow="2"
     inkscape:window-width="1319"
     inkscape:window-height="753"
     id="namedview137"
     showgrid="false"
     inkscape:zoom="2.0857107"
     inkscape:cx="189.79352"
     inkscape:cy="74.618194"
     inkscape:window-x="41"
     inkscape:window-y="15"
     inkscape:window-maximized="1"
     inkscape:current-layer="Layer_1" /><g
     id="g3942"><g
       id="g100"><g
         id="g98"><path
           d="M 58.3,66.8 C 53.3,64.3 43,58.3 43,58.3 l -0.7,39.2 c 0,1.3 -0.1,1.4 -1.1,1.4 -6.2,0 -9,0 -14.9,0 -0.9,0 -0.9,0.3 -0.9,-0.6 0.2,-22 1.1,-47.6 2,-68.1 0.1,-1.2 0.6,-1.1 1.4,-0.7 12.2,6.9 30.3,17.1 30.3,17.1 v 0 c 0,0 18,-10.2 30.2,-17.1 0.7,-0.4 1.3,-0.5 1.4,0.7 0.9,20.5 1.8,46.1 2,68.1 0,0.9 0,0.6 -0.9,0.6 -5.8,0 -8.6,0 -14.9,0 -1,0 -1.1,-0.1 -1.1,-1.4 L 75.1,58.3 c 0,0 -10.3,5.8 -15.3,8.5 -0.8,0.5 -0.6,0.4 -1.5,0 z"
           id="path84"
           inkscape:connector-curvature="0"
           style="fill:#ffffff" /><g
           id="g94"><g
             id="g92"><path
               d="m 101,98.9 c -1,0 -1.1,-0.2 -1.1,-1.4 0,-18 0,-47.4 0,-67.1 0,-0.9 -0.1,-1 0.9,-1 h 44.8 c 1,0 1.1,0.1 1.1,1.3 0,5.1 0,8.1 0,12.5 0,0.9 -0.3,1.4 -1.1,1.4 L 117.3,44.3 V 56 H 145 c 0.9,0 1,0.2 1,1.4 0,5 0,8.4 0,12.5 0,1.2 -0.1,1.4 -1,1.4 h -27.7 v 11.9 l 29,-0.3 c 1.1,0 1.1,0 1.1,1.3 0,5.1 0,9 0,13.2 0,1.2 -0.1,1.4 -1.1,1.4 H 101 Z"
               id="path86"
               inkscape:connector-curvature="0"
               style="fill:#ffffff" /><path
               d="m 152.7,83 12.2,-5.1 c 0.9,-0.3 0.9,-0.3 1.1,0.5 1.2,3.8 5.7,8.3 12,8.3 6.8,0 10,-2.2 10,-6.9 0,-4.2 -2.9,-6.9 -12,-8 -0.7,-0.1 -1.7,-0.2 -2.4,-0.3 -12,-1.2 -20.3,-8.2 -20.3,-20.9 0,-13.3 8.8,-22.7 26.3,-22.7 13.2,0 21.3,6.5 23.9,15.1 0.3,1.1 -0.1,1.5 -0.7,1.7 l -11.6,4.8 c -0.7,0.3 -1,0.1 -1.2,-0.4 -1.4,-4.1 -5.9,-8.1 -11.1,-8.1 -6.9,0 -9.1,2.7 -9.1,6.5 0,4.7 3.7,6.7 12.6,8.2 0.9,0.1 2,0.3 3.3,0.5 12.7,1.9 20,8.8 20,21.6 0,15.8 -12.6,22.8 -28.1,22.8 -13.5,0 -21.9,-5.6 -25.3,-15.7 -0.4,-1 -0.3,-1.5 0.4,-1.9 z"
               id="path88"
               inkscape:connector-curvature="0"
               style="fill:#ffffff" /><path
               d="m 226.6,89 c -1.2,2.9 -2.5,6.4 -3.5,8.8 -0.3,0.8 -0.5,1.1 -1.8,1.1 -6.5,0 -9.9,0 -16.4,0 -0.8,0 -0.9,-0.4 -0.5,-1.4 10.3,-22.7 24.6,-52.2 33.6,-69.6 0.1,-0.3 2.3,-0.2 2.4,0 9.5,19.2 23,47 33.9,69.6 0.6,1.3 0.5,1.4 -0.4,1.4 -4.8,0 -10.9,0 -18.5,0 -0.5,0 -0.9,-0.1 -1.2,-0.8 -1.2,-2.8 -2.7,-6.6 -3.7,-9.1 z m 18.7,-13.3 -7,-15.6 -6.7,15.6 z"
               id="path90"
               inkscape:connector-curvature="0"
               style="fill:#ffffff" /></g></g><path
           d="M 104.6,17.3 59.1,0 58.6,0.2 13.7,17.2 C 13.3,17.3 13,17.6 13,18 c -0.1,1.5 0.2,4.5 4.4,15.4 2.6,6.9 -2.9,12 -3.2,12.2 -0.1,0.1 -0.1,0.2 -0.2,0.2 L 9.2,47.2 0,64.7 c 0,0 4,-3.5 6.4,-2.1 2.4,1.4 1.5,6.7 1.5,6.7 L 17.4,51.5 16,46.4 c 1.6,-1.8 5.6,-7.1 3,-13.7 -3,-7.9 -4.5,-12.7 -4.3,-14.5 0,-0.1 0,-0.2 0,-0.3 l 44.4,23.8 z"
           id="path96"
           inkscape:connector-curvature="0"
           style="fill:#ffffff" /></g></g><g
       id="g104"><path
         d="m 20,100.7 c -1,1 -2.2,1.5 -3.6,1.5 -1.4,0 -2.7,-0.5 -3.7,-1.5 -1,-1 -1.5,-2.3 -1.5,-3.8 0,-1.6 0.5,-2.9 1.6,-3.9 1,-1 2.2,-1.4 3.5,-1.4 1.4,0 2.6,0.5 3.6,1.6 1,1 1.5,2.3 1.5,3.8 0.2,1.4 -0.4,2.7 -1.4,3.7 z m -6.6,-6.9 c -0.8,0.9 -1.2,1.9 -1.2,3.1 0,1.2 0.4,2.3 1.2,3.1 0.8,0.9 1.8,1.3 3,1.3 1.2,0 2.2,-0.4 3,-1.3 0.8,-0.9 1.2,-1.9 1.2,-3.1 0,-1.2 -0.4,-2.2 -1.2,-3.1 -0.8,-0.9 -1.8,-1.3 -3,-1.3 -1.2,0 -2.2,0.4 -3,1.3 z m 0.7,6.1 V 94 c 0.4,0 0.9,0 1.6,0 0.7,0 1.1,0 1.2,0 0.5,0 0.8,0.1 1.1,0.3 0.5,0.3 0.8,0.8 0.8,1.4 0,0.5 -0.1,0.9 -0.4,1.1 -0.3,0.2 -0.6,0.4 -1,0.4 0.4,0.1 0.6,0.2 0.8,0.3 0.3,0.3 0.5,0.7 0.5,1.3 v 0.5 c 0,0.1 0,0.1 0,0.2 0,0.1 0,0.1 0,0.2 l 0.1,0.2 h -1.4 c 0,-0.2 -0.1,-0.5 -0.1,-0.8 0,-0.4 -0.1,-0.6 -0.1,-0.7 C 17.1,98.2 17,98 16.8,98 16.7,98 16.5,97.9 16.3,97.9 H 16 15.7 v 2.1 h -1.6 z m 2.8,-4.8 C 16.7,95 16.4,95 16,95 h -0.4 v 1.7 h 0.6 c 0.4,0 0.6,-0.1 0.8,-0.2 0.2,-0.1 0.3,-0.4 0.3,-0.7 0,-0.3 -0.1,-0.5 -0.4,-0.7 z"
         id="path102"
         inkscape:connector-curvature="0"
         style="fill:#ffffff" /></g><g
       transform="matrix(0.68891946,0,0,1,5.9727463,0)"
       id="g118"><line
         x1="25"
         y1="110.8"
         x2="389.10001"
         y2="110.8"
         id="line106"
         style="fill:#ffffff" /><rect
         x="25"
         y="109.9"
         width="364.10001"
         height="1.9"
         id="rect108"
         style="fill:#ffffff" /><g
         id="g116"><g
           id="g114"><g
             id="g112"><path
               d="M 19.2,110.7"
               id="path110"
               inkscape:connector-curvature="0"
               style="fill:#ffffff" /></g></g></g></g><g
       id="g132"><path
         d="m 25,127.4 c 0,-6.4 3.2,-10.1 7.9,-10.1 5.3,0 7.9,4.4 7.9,10.1 0,6.1 -2.8,10.1 -7.7,10.1 -5.5,0 -8.1,-4.3 -8.1,-10.1 z m 12.2,0.2 c 0,-4.8 -1,-7.8 -4.3,-7.8 -3.2,0 -4.4,2.7 -4.4,7.3 0,5 1.2,7.8 4.4,7.8 2.8,0.1 4.3,-2 4.3,-7.3 z"
         id="path120"
         inkscape:connector-curvature="0"
         style="fill:#ffffff" /><path
         d="m 63.6,137.2 -1.6,-3 c -1.3,-2.4 -2.2,-3.8 -3.2,-4.8 -0.4,-0.4 -0.6,-0.6 -1.2,-0.6 v 8.4 h -3.1 v -19.5 h 5.8 c 4.2,0 6.1,2.5 6.1,5.6 0,2.8 -1.7,5.4 -4.7,5.4 0.7,0.4 1.9,2.3 2.9,3.9 l 2.8,4.7 h -3.8 z m -6.1,-16.9 v 6.2 h 1.6 c 1.6,0 2.5,-0.2 3.1,-0.8 0.5,-0.5 0.8,-1.4 0.8,-2.4 0,-2 -1,-3 -3.8,-3 z"
         id="path122"
         inkscape:connector-curvature="0"
         style="fill:#ffffff" /><path
         d="m 80.7,137.2 v -19.5 h 10.5 l -0.4,2.7 h -6.9 v 5.3 h 5.8 v 2.7 h -5.8 v 6.1 h 7.6 v 2.8 H 80.7 Z"
         id="path124"
         inkscape:connector-curvature="0"
         style="fill:#ffffff" /><path
         d="m 112.1,137.4 c -2.6,0 -4.7,-0.9 -6.2,-2.8 -1.4,-1.8 -2.1,-4 -2.1,-7.1 0,-4 1.2,-6.8 3.5,-8.6 1.4,-1.1 2.8,-1.5 4.7,-1.5 2.2,0 4.1,0.7 5.6,2.1 l -1.6,2 c -1.3,-1 -2.5,-1.5 -4,-1.5 -3.5,0 -4.8,3.2 -4.8,7.7 0,2.7 0.5,4.7 1.4,5.8 0.8,0.9 2.1,1.5 3.6,1.5 1,0 1.8,-0.2 2.5,-0.6 v -5.1 h -3.2 l -0.4,-2.7 h 6.8 v 9.2 c -1.7,1.1 -3.7,1.6 -5.8,1.6 z"
         id="path126"
         inkscape:connector-curvature="0"
         style="fill:#ffffff" /><path
         d="m 131,127.4 c 0,-6.4 3.2,-10.1 7.9,-10.1 5.3,0 7.9,4.4 7.9,10.1 0,6.1 -2.8,10.1 -7.7,10.1 -5.4,0 -8.1,-4.3 -8.1,-10.1 z m 12.2,0.2 c 0,-4.8 -1,-7.8 -4.3,-7.8 -3.2,0 -4.4,2.7 -4.4,7.3 0,5 1.2,7.8 4.4,7.8 2.9,0.1 4.3,-2 4.3,-7.3 z"
         id="path128"
         inkscape:connector-curvature="0"
         style="fill:#ffffff" /><path
         d="m 169.7,137.2 -4.2,-9.2 c -1,-2.2 -2,-4.6 -2.4,-5.8 l -0.1,0.1 c 0.1,1.6 0.2,3.7 0.2,5.4 l 0.1,9.5 h -3.1 v -19.5 h 3.5 l 4.6,9.5 c 0.9,1.8 1.7,4.1 1.9,5 l 0.1,-0.1 c -0.1,-1 -0.3,-3.8 -0.3,-5.6 l -0.1,-8.9 h 3 v 19.5 h -3.2 z"
         id="path130"
         inkscape:connector-curvature="0"
         style="fill:#ffffff" /></g></g></svg>