<?xml version="1.0" encoding="UTF-8" standalone="no"?>
<!-- Generator: Adobe Illustrator 18.1.1, SVG Export Plug-In . SVG Version: 6.00 Build 0)  -->

<svg
   xmlns:dc="http://purl.org/dc/elements/1.1/"
   xmlns:cc="http://creativecommons.org/ns#"
   xmlns:rdf="http://www.w3.org/1999/02/22-rdf-syntax-ns#"
   xmlns:svg="http://www.w3.org/2000/svg"
   xmlns="http://www.w3.org/2000/svg"
   xmlns:sodipodi="http://sodipodi.sourceforge.net/DTD/sodipodi-0.dtd"
   xmlns:inkscape="http://www.inkscape.org/namespaces/inkscape"
   version="1.1"
   id="Layer_1"
   x="0px"
   y="0px"
   viewBox="0 0 104.6 102.19999"
   enable-background="new 0 0 389.2 137.5"
   xml:space="preserve"
   sodipodi:docname="MESA_logo_white_tiny.svg"
   inkscape:version="0.92.2 (unknown)"
   width="104.6"
   height="102.2"><metadata
     id="metadata141"><rdf:RDF><cc:Work
         rdf:about=""><dc:format>image/svg+xml</dc:format><dc:type
           rdf:resource="http://purl.org/dc/dcmitype/StillImage" /><dc:title></dc:title></cc:Work></rdf:RDF></metadata><defs
     id="defs139" /><sodipodi:namedview
     pagecolor="#ffffff"
     bordercolor="#666666"
     borderopacity="1"
     objecttolerance="10"
     gridtolerance="10"
     guidetolerance="10"
     inkscape:pageopacity="0"
     inkscape:pageshadow="2"
     inkscape:window-width="1319"
     inkscape:window-height="753"
     id="namedview137"
     showgrid="false"
     inkscape:zoom="2.0857107"
     inkscape:cx="189.79352"
     inkscape:cy="-4.240256"
     inkscape:window-x="41"
     inkscape:window-y="15"
     inkscape:window-maximized="1"
     inkscape:current-layer="Layer_1" /><g
     id="g4372"
     style="fill:#ffffff"><path
       d="M 58.3,66.8 C 53.3,64.3 43,58.3 43,58.3 l -0.7,39.2 c 0,1.3 -0.1,1.4 -1.1,1.4 -6.2,0 -9,0 -14.9,0 -0.9,0 -0.9,0.3 -0.9,-0.6 0.2,-22 1.1,-47.6 2,-68.1 0.1,-1.2 0.6,-1.1 1.4,-0.7 12.2,6.9 30.3,17.1 30.3,17.1 v 0 c 0,0 18,-10.2 30.2,-17.1 0.7,-0.4 1.3,-0.5 1.4,0.7 0.9,20.5 1.8,46.1 2,68.1 0,0.9 0,0.6 -0.9,0.6 -5.8,0 -8.6,0 -14.9,0 -1,0 -1.1,-0.1 -1.1,-1.4 L 75.1,58.3 c 0,0 -10.3,5.8 -15.3,8.5 -0.8,0.5 -0.6,0.4 -1.5,0 z"
       id="path84"
       inkscape:connector-curvature="0"
       style="fill:#ffffff" /><path
       d="M 104.6,17.3 59.1,0 58.6,0.2 13.7,17.2 C 13.3,17.3 13,17.6 13,18 c -0.1,1.5 0.2,4.5 4.4,15.4 2.6,6.9 -2.9,12 -3.2,12.2 -0.1,0.1 -0.1,0.2 -0.2,0.2 L 9.2,47.2 0,64.7 c 0,0 4,-3.5 6.4,-2.1 2.4,1.4 1.5,6.7 1.5,6.7 L 17.4,51.5 16,46.4 c 1.6,-1.8 5.6,-7.1 3,-13.7 -3,-7.9 -4.5,-12.7 -4.3,-14.5 0,-0.1 0,-0.2 0,-0.3 l 44.4,23.8 z"
       id="path96"
       inkscape:connector-curvature="0"
       style="fill:#ffffff" /><g
       style="fill:#ffffff"
       id="g104"><path
         d="m 20,100.7 c -1,1 -2.2,1.5 -3.6,1.5 -1.4,0 -2.7,-0.5 -3.7,-1.5 -1,-1 -1.5,-2.3 -1.5,-3.8 0,-1.6 0.5,-2.9 1.6,-3.9 1,-1 2.2,-1.4 3.5,-1.4 1.4,0 2.6,0.5 3.6,1.6 1,1 1.5,2.3 1.5,3.8 0.2,1.4 -0.4,2.7 -1.4,3.7 z m -6.6,-6.9 c -0.8,0.9 -1.2,1.9 -1.2,3.1 0,1.2 0.4,2.3 1.2,3.1 0.8,0.9 1.8,1.3 3,1.3 1.2,0 2.2,-0.4 3,-1.3 0.8,-0.9 1.2,-1.9 1.2,-3.1 0,-1.2 -0.4,-2.2 -1.2,-3.1 -0.8,-0.9 -1.8,-1.3 -3,-1.3 -1.2,0 -2.2,0.4 -3,1.3 z m 0.7,6.1 V 94 c 0.4,0 0.9,0 1.6,0 0.7,0 1.1,0 1.2,0 0.5,0 0.8,0.1 1.1,0.3 0.5,0.3 0.8,0.8 0.8,1.4 0,0.5 -0.1,0.9 -0.4,1.1 -0.3,0.2 -0.6,0.4 -1,0.4 0.4,0.1 0.6,0.2 0.8,0.3 0.3,0.3 0.5,0.7 0.5,1.3 v 0.5 c 0,0.1 0,0.1 0,0.2 0,0.1 0,0.1 0,0.2 l 0.1,0.2 h -1.4 c 0,-0.2 -0.1,-0.5 -0.1,-0.8 0,-0.4 -0.1,-0.6 -0.1,-0.7 C 17.1,98.2 17,98 16.8,98 16.7,98 16.5,97.9 16.3,97.9 H 16 15.7 v 2.1 h -1.6 z m 2.8,-4.8 C 16.7,95 16.4,95 16,95 h -0.4 v 1.7 h 0.6 c 0.4,0 0.6,-0.1 0.8,-0.2 0.2,-0.1 0.3,-0.4 0.3,-0.7 0,-0.3 -0.1,-0.5 -0.4,-0.7 z"
         id="path102"
         inkscape:connector-curvature="0"
         style="fill:#ffffff" /></g></g></svg>