<?xml version="1.0" encoding="utf-8"?>
<!-- Generator: Adobe Illustrator 18.1.1, SVG Export Plug-In . SVG Version: 6.00 Build 0)  -->
<svg version="1.1" id="Layer_1" xmlns="http://www.w3.org/2000/svg" xmlns:xlink="http://www.w3.org/1999/xlink" x="0px" y="0px"
	 viewBox="0 0 389.2 137.5" enable-background="new 0 0 389.2 137.5" xml:space="preserve">
<g>
	<g>
		<path fill="#FFFFFF" d="M268.6,29l0.3,6.7c0,1,0,1.4,0,2.1c0.3-0.7,0.6-1.4,0.9-2.2l3.1-6.6h3.3l-1.6,13.3h-2.5l1-7.1
			c0.1-0.8,0.2-1.5,0.4-2.2c-0.3,0.8-0.5,1.2-0.9,2l-3.5,7.3h-2.2l-0.4-7c0-0.7-0.1-1.6,0-2.4c-0.2,0.8-0.4,1.6-0.6,2.4l-1.9,6.9
			h-2.6l3.9-13.3H268.6z"/>
		<path fill="#FFFFFF" d="M285.1,35.4l-0.8,3.7c-0.2,0.8-0.1,1.4,0.4,1.9l-2.1,1.6c-0.4-0.3-0.6-0.8-0.7-1.2
			c-0.7,0.8-1.5,1.2-2.5,1.2c-1.7,0-2.6-1.1-2.6-3.1c0-2.4,0.9-4.4,2-5.6c1-1.1,2.2-1.5,3.8-1.5c1.1,0,2.3,0.2,3.1,0.7
			C285.5,33.6,285.2,34.7,285.1,35.4z M282.2,34.3c-0.6,0-1.1,0-1.7,0.8c-0.8,1-1.2,2.9-1.2,4.2c0,0.9,0.2,1.3,0.8,1.3
			c0.8,0,1.6-0.8,1.8-1.5l1-4.6C282.8,34.4,282.5,34.3,282.2,34.3z"/>
		<path fill="#FFFFFF" d="M291.6,34.3H290l-1,4.9c-0.1,0.3-0.1,0.6-0.1,0.9c0,0.5,0.3,0.7,0.8,0.7c0.2,0,0.6-0.1,0.9-0.2v1.5
			c-0.7,0.3-1.5,0.4-2.1,0.4c-1.4,0-2.2-0.7-2.2-1.7c0-0.3,0-0.8,0.1-1.3l1.1-5.3h-0.9l0.4-1.8h0.9c0.2-1,0.3-1.6,0.6-2.3l2.6-0.7
			c-0.3,0.9-0.6,2-0.8,3h2.2L291.6,34.3z"/>
		<path fill="#FFFFFF" d="M296.8,28c0.2,0.4,0.1,1.8-0.1,2.8l-0.3,1.6c-0.1,0.3-0.2,1-0.3,1.2c0.7-0.8,1.9-1.4,3.1-1.4
			c1.5,0,2.2,0.7,2.2,2c0,0.3,0,0.7-0.2,1.2l-1.4,6.8h-2.4l1.3-6.6c0.2-1,0-1.3-0.7-1.3c-0.7,0-1.7,0.7-2.3,1.5l-1.3,6.4h-2.5
			l2.2-10.7c0.3-1.5,0.3-2.2,0.2-2.7L296.8,28z"/>
		<path fill="#FFFFFF" d="M309.5,41.2c-1.3,0.9-2.5,1.3-3.8,1.3c-2.3,0-3.6-1.2-3.6-3.6c0-2,0.9-4.1,2.1-5.4c0.9-0.9,2-1.3,3.3-1.3
			c1.9,0,3.2,0.8,3.2,2.7c0,1.9-1.6,3.4-4.8,3.4c-0.6,0-1.1-0.1-1.1-0.1s-0.1,0.6-0.1,0.9c0,1.1,0.6,1.6,1.6,1.6
			c0.8,0,1.7-0.4,2.6-1L309.5,41.2z M305.8,36.6c1.1,0,2.3-0.4,2.3-1.4c0-0.6-0.3-1-1-1c-0.9,0-1.6,0.6-2,2.3
			C305.1,36.5,305.5,36.6,305.8,36.6z"/>
		<path fill="#FFFFFF" d="M314.6,32.2c0.1,0.3,0.3,1.1,0.2,1.6c0.9-1,2-1.5,3-1.5c1,0,1.6,0.4,1.7,1.5c1-1.1,2-1.5,3-1.5
			c1.1,0,1.9,0.6,1.9,2c0,0.4-0.1,0.8-0.1,1.3l-1.4,6.7h-2.4l1.3-6.5c0.1-0.4,0.1-0.6,0.1-0.8c0-0.4-0.2-0.6-0.6-0.6
			c-0.6,0-1.4,0.6-2,1.5l-1.3,6.4h-2.3l1.3-6.4c0.1-0.4,0.1-0.7,0.1-1c0-0.4-0.2-0.5-0.6-0.5c-0.6,0-1.3,0.5-2,1.5l-1.3,6.4H311
			l1.4-6.7c0.2-0.9,0.1-2,0-2.5L314.6,32.2z"/>
		<path fill="#FFFFFF" d="M333.6,35.4l-0.8,3.7c-0.2,0.8-0.1,1.4,0.3,1.9l-2,1.6c-0.4-0.3-0.6-0.8-0.7-1.2c-0.7,0.8-1.5,1.2-2.5,1.2
			c-1.7,0-2.6-1.1-2.6-3.1c0-2.4,0.9-4.4,2-5.6c1-1.1,2.2-1.5,3.8-1.5c1.1,0,2.3,0.2,3.1,0.7C334,33.6,333.7,34.7,333.6,35.4z
			 M330.7,34.3c-0.6,0-1.1,0-1.7,0.8c-0.8,1-1.2,2.9-1.2,4.2c0,0.9,0.2,1.3,0.8,1.3c0.8,0,1.6-0.8,1.8-1.5l1-4.6
			C331.3,34.4,330.9,34.3,330.7,34.3z"/>
		<path fill="#FFFFFF" d="M340.1,34.3h-1.6l-1,4.9c-0.1,0.3-0.1,0.6-0.1,0.9c0,0.5,0.3,0.7,0.8,0.7c0.2,0,0.6-0.1,0.9-0.2v1.5
			c-0.7,0.3-1.5,0.4-2.1,0.4c-1.4,0-2.2-0.7-2.2-1.7c0-0.3,0-0.8,0.1-1.3l1.1-5.3H335l0.4-1.8h0.9c0.2-1,0.3-1.6,0.6-2.3l2.6-0.7
			c-0.3,0.9-0.6,2-0.8,3h2.2L340.1,34.3z"/>
		<path fill="#FFFFFF" d="M344.9,32.3l-2.1,10h-2.5l2-9.6L344.9,32.3z M345.7,29.8c0,0.9-0.7,1.6-1.5,1.6c-0.8,0-1.5-0.7-1.5-1.6
			c0-0.9,0.7-1.6,1.6-1.6C345,28.2,345.7,28.9,345.7,29.8z"/>
		<path fill="#FFFFFF" d="M351.8,35c-0.4-0.5-0.9-0.7-1.4-0.7c-0.4,0-0.8,0.2-1.2,0.6c-0.7,0.8-1.3,2.8-1.3,4.3c0,1,0.5,1.5,1.1,1.5
			c0.7,0,1.4-0.4,2.1-1l0.8,1.6c-1,0.8-2.1,1.3-3.5,1.3c-2.1,0-3.3-1.3-3.3-3.4c0-2.4,1.1-4.6,2.4-5.8c0.8-0.7,1.8-1.2,3.1-1.2
			c0.9,0,1.8,0.4,2.5,1.2L351.8,35z"/>
		<path fill="#FFFFFF" d="M360.2,34.9c-0.8-0.5-1.6-0.7-2.3-0.7c-0.8,0-1.4,0.3-1.4,1c0,0.4,0.3,0.7,1,1l1.1,0.4
			c0.9,0.3,1.9,1,1.9,2.2c0,2-1.5,3.9-4.6,3.9c-1.4,0-2.6-0.4-3.7-1.1l1-1.9c0.7,0.5,2,1,3,1c0.8,0,1.5-0.6,1.5-1.2
			c0-0.5-0.4-0.7-1.2-1l-1.1-0.4c-1-0.3-1.7-1-1.7-2.3c0-1.7,1.2-3.5,4.3-3.5c1.2,0,2.3,0.4,3.1,0.9L360.2,34.9z"/>
		<path fill="#FFFFFF" d="M280.6,47.2l-0.8,2.2h-4.4l-0.6,3.1h3.6l-0.4,2.2h-3.6l-0.7,3.6h4.8l-0.5,2.3h-7.5l2.7-13.3H280.6z"/>
		<path fill="#FFFFFF" d="M283.5,50.4c0.2,0.3,0.3,1.2,0.2,1.6c0.8-0.9,1.8-1.5,3.2-1.5c1.2,0,1.9,0.7,1.9,1.9c0,0.4-0.1,1-0.1,1.4
			l-1.4,6.7h-2.4l1.3-6.4c0.1-0.4,0.1-0.7,0.1-0.9c0-0.5-0.2-0.6-0.6-0.6c-0.6,0-1.3,0.4-2.1,1.5l-1.3,6.4h-2.4l1.3-6.6
			c0.2-1.1,0.2-1.9,0-2.6L283.5,50.4z"/>
		<path fill="#FFFFFF" d="M289.7,57.4c0-1.9,0.7-4.2,2-5.5c0.9-0.8,2.1-1.4,3.4-1.4c1.6,0,2.7,0.2,3.7,0.7c0,0-0.3,0.8-0.4,1.3
			l-1.1,5c-0.4,1.9-0.5,2.9-0.7,3.8c-0.6,2.6-2.8,3.4-5,3.4c-1.3,0-2.5-0.3-3.3-0.9l0.8-1.7c0.6,0.4,1.6,0.7,2.7,0.7
			c1.3,0,2.2-0.7,2.4-1.7c0.1-0.3,0.2-0.9,0.3-1.2c-0.6,0.5-1.3,0.8-2,0.8C290.6,60.8,289.7,59.7,289.7,57.4z M295,52.5
			c-0.5,0-1.2,0.4-1.6,0.8c-0.7,1-1.1,2.7-1.1,3.9c0,0.9,0.4,1.5,1,1.5c0.6,0,1.4-0.8,1.7-1.3l1-4.7C295.9,52.6,295.5,52.5,295,52.5
			z"/>
		<path fill="#FFFFFF" d="M304,50.5l-2,10h-2.5l2-9.6L304,50.5z M304.8,48c0,0.9-0.7,1.6-1.5,1.6c-0.8,0-1.5-0.7-1.5-1.6
			c0-0.9,0.7-1.6,1.6-1.6C304.1,46.4,304.8,47.1,304.8,48z"/>
		<path fill="#FFFFFF" d="M307.8,50.4c0.2,0.3,0.3,1.2,0.2,1.6c0.8-0.9,1.8-1.5,3.2-1.5c1.2,0,1.9,0.7,1.9,1.9c0,0.4-0.1,1-0.1,1.4
			l-1.4,6.7h-2.4l1.3-6.4c0.1-0.4,0.1-0.7,0.1-0.9c0-0.5-0.2-0.6-0.6-0.6c-0.6,0-1.3,0.4-2.1,1.5l-1.3,6.4h-2.4l1.3-6.6
			c0.2-1.1,0.2-1.9,0-2.6L307.8,50.4z"/>
		<path fill="#FFFFFF" d="M321.5,59.4c-1.3,0.9-2.5,1.3-3.8,1.3c-2.3,0-3.6-1.2-3.6-3.6c0-2,0.9-4.1,2.1-5.4c0.9-0.9,2-1.3,3.3-1.3
			c1.9,0,3.2,0.8,3.2,2.7c0,1.9-1.6,3.4-4.8,3.4c-0.6,0-1.1-0.1-1.1-0.1s-0.1,0.6-0.1,0.9c0,1.1,0.6,1.6,1.6,1.6
			c0.8,0,1.7-0.4,2.6-1L321.5,59.4z M317.9,54.8c1.1,0,2.3-0.4,2.3-1.4c0-0.6-0.3-1-1-1c-0.9,0-1.6,0.6-2,2.3
			C317.2,54.7,317.5,54.8,317.9,54.8z"/>
		<path fill="#FFFFFF" d="M330.6,59.4c-1.3,0.9-2.5,1.3-3.8,1.3c-2.3,0-3.6-1.2-3.6-3.6c0-2,0.9-4.1,2.1-5.4c0.9-0.9,2-1.3,3.3-1.3
			c1.9,0,3.2,0.8,3.2,2.7c0,1.9-1.6,3.4-4.8,3.4c-0.6,0-1.1-0.1-1.1-0.1s-0.1,0.6-0.1,0.9c0,1.1,0.6,1.6,1.6,1.6
			c0.8,0,1.7-0.4,2.6-1L330.6,59.4z M327,54.8c1.1,0,2.3-0.4,2.3-1.4c0-0.6-0.3-1-1-1c-0.9,0-1.6,0.6-2,2.3
			C326.3,54.7,326.6,54.8,327,54.8z"/>
		<path fill="#FFFFFF" d="M335.7,50.4c0.1,0.3,0.3,1,0.2,1.6c0.8-0.9,1.7-1.5,2.6-1.5c0.4,0,0.5,0,0.9,0.2l-1.1,2.3
			c-0.2-0.1-0.4-0.2-0.7-0.2c-0.5,0-1,0.3-1.8,1.3l-1.3,6.4h-2.5l1.3-6.5c0.3-1.2,0.2-2.1,0-2.7L335.7,50.4z"/>
		<path fill="#FFFFFF" d="M342.8,50.5l-2,10h-2.5l2-9.6L342.8,50.5z M343.6,48c0,0.9-0.7,1.6-1.5,1.6c-0.8,0-1.5-0.7-1.5-1.6
			c0-0.9,0.7-1.6,1.6-1.6C343,46.4,343.6,47.1,343.6,48z"/>
		<path fill="#FFFFFF" d="M346.7,50.4c0.2,0.3,0.3,1.2,0.2,1.6c0.8-0.9,1.8-1.5,3.2-1.5c1.2,0,1.9,0.7,1.9,1.9c0,0.4-0.1,1-0.1,1.4
			l-1.4,6.7h-2.4l1.3-6.4c0.1-0.4,0.1-0.7,0.1-0.9c0-0.5-0.2-0.6-0.6-0.6c-0.6,0-1.3,0.4-2.1,1.5l-1.3,6.4H343l1.4-6.6
			c0.2-1.1,0.2-1.9,0-2.6L346.7,50.4z"/>
		<path fill="#FFFFFF" d="M352.9,57.4c0-1.9,0.7-4.2,2.1-5.5c0.9-0.8,2-1.4,3.4-1.4c1.6,0,2.7,0.2,3.7,0.7c0,0-0.3,0.8-0.3,1.3
			l-1.1,5c-0.4,1.9-0.5,2.9-0.7,3.8c-0.6,2.6-2.8,3.4-5,3.4c-1.3,0-2.5-0.3-3.3-0.9l0.8-1.7c0.6,0.4,1.6,0.7,2.7,0.7
			c1.4,0,2.2-0.7,2.4-1.7c0.1-0.3,0.2-0.9,0.3-1.2c-0.6,0.5-1.3,0.8-2,0.8C353.7,60.8,352.9,59.7,352.9,57.4z M358.2,52.5
			c-0.5,0-1.2,0.4-1.6,0.8c-0.7,1-1.1,2.7-1.1,3.9c0,0.9,0.3,1.5,1,1.5c0.6,0,1.4-0.8,1.7-1.3l1-4.7C359,52.6,358.6,52.5,358.2,52.5
			z"/>
		<path fill="#FFFFFF" d="M289.5,70c-0.8-0.7-1.7-0.9-2.8-0.9c-1.2,0-2.1,0.8-2.1,1.7c0,0.5,0.3,1,1.2,1.3l1.5,0.5
			c1.7,0.6,2.5,1.5,2.5,3c0,2.9-2.4,5.3-6.2,5.3c-1.8,0-3.2-0.5-4.2-1.2l1.4-2c1.1,0.6,2,1,3.3,1c1.6,0,2.7-0.9,2.7-2.2
			c0-0.7-0.4-1.1-1.4-1.4l-1.3-0.5c-1.5-0.5-2.3-1.2-2.3-2.8c0-2.7,2.4-4.9,5.5-4.9c1.6,0,3.1,0.5,4,1.3L289.5,70z"/>
		<path fill="#FFFFFF" d="M297.2,73.3c-0.4-0.5-0.9-0.7-1.4-0.7c-0.4,0-0.8,0.2-1.2,0.6c-0.7,0.8-1.3,2.8-1.3,4.3
			c0,1,0.5,1.5,1.1,1.5c0.7,0,1.4-0.4,2.1-1l0.8,1.6c-1,0.8-2.1,1.3-3.5,1.3c-2.1,0-3.2-1.3-3.2-3.4c0-2.4,1.1-4.6,2.4-5.8
			c0.8-0.7,1.8-1.2,3.1-1.2c0.9,0,1.8,0.4,2.5,1.2L297.2,73.3z"/>
		<path fill="#FFFFFF" d="M302.8,70.5l-2,10h-2.5l2-9.6L302.8,70.5z M303.6,68.1c0,0.9-0.7,1.6-1.5,1.6c-0.8,0-1.5-0.7-1.5-1.6
			c0-0.9,0.7-1.6,1.6-1.6C303,66.5,303.6,67.2,303.6,68.1z"/>
		<path fill="#FFFFFF" d="M310.6,79.5c-1.3,0.9-2.5,1.3-3.8,1.3c-2.3,0-3.6-1.2-3.6-3.6c0-2,0.9-4.1,2.1-5.4c0.9-0.9,2-1.3,3.2-1.3
			c1.9,0,3.2,0.8,3.2,2.7c0,1.9-1.6,3.4-4.8,3.4c-0.6,0-1.1-0.1-1.1-0.1s-0.1,0.6-0.1,0.9c0,1.1,0.6,1.6,1.6,1.6
			c0.8,0,1.7-0.4,2.6-1L310.6,79.5z M307,74.8c1.1,0,2.3-0.4,2.3-1.4c0-0.6-0.3-1-1-1c-0.9,0-1.6,0.6-2,2.3
			C306.3,74.7,306.7,74.8,307,74.8z"/>
		<path fill="#FFFFFF" d="M315.8,70.4c0.2,0.3,0.3,1.2,0.2,1.6c0.8-0.9,1.8-1.5,3.2-1.5c1.2,0,1.9,0.7,1.9,1.9c0,0.4-0.1,1-0.1,1.4
			l-1.4,6.7h-2.4l1.3-6.4c0.1-0.4,0.1-0.7,0.1-0.9c0-0.5-0.2-0.6-0.6-0.6c-0.6,0-1.3,0.4-2.1,1.5l-1.3,6.4h-2.4l1.3-6.6
			c0.2-1.1,0.2-1.9,0-2.6L315.8,70.4z"/>
		<path fill="#FFFFFF" d="M328.6,73.3c-0.4-0.5-0.9-0.7-1.4-0.7c-0.4,0-0.8,0.2-1.2,0.6c-0.7,0.8-1.3,2.8-1.3,4.3
			c0,1,0.5,1.5,1.1,1.5c0.7,0,1.4-0.4,2.1-1l0.8,1.6c-1,0.8-2.1,1.3-3.5,1.3c-2.1,0-3.2-1.3-3.2-3.4c0-2.4,1.1-4.6,2.4-5.8
			c0.8-0.7,1.8-1.2,3.1-1.2c0.9,0,1.8,0.4,2.5,1.2L328.6,73.3z"/>
		<path fill="#FFFFFF" d="M337.3,79.5c-1.3,0.9-2.5,1.3-3.8,1.3c-2.3,0-3.6-1.2-3.6-3.6c0-2,0.9-4.1,2.1-5.4c0.9-0.9,2-1.3,3.2-1.3
			c1.9,0,3.2,0.8,3.2,2.7c0,1.9-1.6,3.4-4.8,3.4c-0.6,0-1.1-0.1-1.1-0.1s-0.1,0.6-0.1,0.9c0,1.1,0.6,1.6,1.6,1.6
			c0.8,0,1.7-0.4,2.6-1L337.3,79.5z M333.6,74.8c1.1,0,2.3-0.4,2.3-1.4c0-0.6-0.3-1-1-1c-0.9,0-1.6,0.6-2,2.3
			C332.9,74.7,333.3,74.8,333.6,74.8z"/>
		<path fill="#FFFFFF" d="M298.6,85.4l1.3,13.3h-2.7l-0.3-3.2h-3.8l-1.6,3.2h-2.8l6.9-13.3H298.6z M296.8,93.4l-0.2-2.8
			c-0.1-1.1-0.1-2.3-0.1-2.3s-0.7,1.6-1.1,2.6l-1.1,2.5H296.8z"/>
		<path fill="#FFFFFF" d="M307.5,91.5c-0.4-0.5-0.9-0.7-1.4-0.7c-0.4,0-0.8,0.2-1.2,0.6c-0.7,0.8-1.3,2.8-1.3,4.3
			c0,1,0.5,1.5,1.1,1.5c0.7,0,1.4-0.4,2.1-1l0.8,1.6c-1,0.8-2.1,1.3-3.5,1.3c-2.1,0-3.3-1.3-3.3-3.4c0-2.4,1.1-4.6,2.4-5.8
			c0.9-0.7,1.8-1.2,3.1-1.2c0.9,0,1.8,0.4,2.5,1.2L307.5,91.5z"/>
		<path fill="#FFFFFF" d="M313.5,84.5c0.2,0.4,0.1,1.8-0.1,2.8l-0.3,1.6c-0.1,0.3-0.2,1-0.3,1.2c0.7-0.8,1.9-1.4,3.1-1.4
			c1.5,0,2.2,0.7,2.2,2c0,0.3,0,0.6-0.2,1.2l-1.4,6.8H314l1.3-6.6c0.2-1,0-1.3-0.7-1.3c-0.7,0-1.7,0.7-2.3,1.5l-1.3,6.4h-2.5
			l2.2-10.7c0.3-1.5,0.3-2.2,0.2-2.7L313.5,84.5z"/>
		<path fill="#FFFFFF" d="M323.1,88.7l-2,10h-2.5l2-9.6L323.1,88.7z M323.9,86.3c0,0.9-0.7,1.6-1.5,1.6c-0.8,0-1.5-0.7-1.5-1.6
			c0-0.9,0.7-1.6,1.6-1.6C323.2,84.7,323.9,85.4,323.9,86.3z"/>
		<path fill="#FFFFFF" d="M330.9,97.7c-1.3,0.9-2.5,1.3-3.8,1.3c-2.3,0-3.6-1.2-3.6-3.6c0-2,0.9-4.1,2.1-5.4c0.9-0.9,2-1.3,3.2-1.3
			c1.9,0,3.2,0.8,3.2,2.7c0,1.9-1.6,3.4-4.8,3.4c-0.6,0-1.1-0.1-1.1-0.1s-0.1,0.6-0.1,0.9c0,1.1,0.6,1.6,1.6,1.6
			c0.8,0,1.7-0.4,2.6-1L330.9,97.7z M327.3,93c1.1,0,2.3-0.4,2.3-1.4c0-0.6-0.3-1-1-1c-0.9,0-1.6,0.6-2,2.3
			C326.6,92.9,326.9,93,327.3,93z"/>
		<path fill="#FFFFFF" d="M335.4,88.8l0.5,4.4c0.1,0.7,0.1,1.7,0.1,2.4c0.2-0.6,0.6-1.5,1.1-2.5l2.1-4.1h2.6l-5.5,9.8h-2l-1.5-9.6
			L335.4,88.8z"/>
		<path fill="#FFFFFF" d="M348.1,97.7c-1.3,0.9-2.5,1.3-3.8,1.3c-2.3,0-3.6-1.2-3.6-3.6c0-2,0.9-4.1,2.1-5.4c0.9-0.9,2-1.3,3.3-1.3
			c1.9,0,3.2,0.8,3.2,2.7c0,1.9-1.6,3.4-4.8,3.4c-0.6,0-1.1-0.1-1.1-0.1s-0.1,0.6-0.1,0.9c0,1.1,0.6,1.6,1.6,1.6
			c0.8,0,1.7-0.4,2.6-1L348.1,97.7z M344.5,93c1.1,0,2.3-0.4,2.3-1.4c0-0.6-0.3-1-1-1c-0.9,0-1.6,0.6-2,2.3
			C343.8,92.9,344.1,93,344.5,93z"/>
		<path fill="#FFFFFF" d="M353.2,88.6c0.1,0.3,0.3,1.1,0.2,1.6c0.9-1,2-1.5,3-1.5c1,0,1.6,0.4,1.7,1.5c1-1,2-1.5,3-1.5
			c1,0,1.9,0.6,1.9,2c0,0.4-0.1,0.8-0.1,1.3l-1.4,6.7h-2.4l1.3-6.5c0.1-0.4,0.1-0.6,0.1-0.8c0-0.4-0.2-0.6-0.6-0.6
			c-0.6,0-1.4,0.6-2,1.5l-1.3,6.4h-2.3l1.3-6.4c0.1-0.4,0.1-0.7,0.1-1c0-0.4-0.2-0.5-0.6-0.5c-0.6,0-1.3,0.5-2,1.5l-1.3,6.4h-2.4
			l1.4-6.7c0.2-0.9,0.1-2,0-2.5L353.2,88.6z"/>
		<path fill="#FFFFFF" d="M371.5,97.7c-1.3,0.9-2.5,1.3-3.8,1.3c-2.3,0-3.6-1.2-3.6-3.6c0-2,0.9-4.1,2.1-5.4c0.9-0.9,2-1.3,3.2-1.3
			c1.9,0,3.2,0.8,3.2,2.7c0,1.9-1.6,3.4-4.8,3.4c-0.6,0-1.1-0.1-1.1-0.1s-0.1,0.6-0.1,0.9c0,1.1,0.6,1.6,1.6,1.6
			c0.9,0,1.7-0.4,2.6-1L371.5,97.7z M367.9,93c1.1,0,2.3-0.4,2.3-1.4c0-0.6-0.3-1-1-1c-0.9,0-1.6,0.6-2,2.3
			C367.2,92.9,367.5,93,367.9,93z"/>
		<path fill="#FFFFFF" d="M376.6,88.6c0.2,0.3,0.3,1.2,0.2,1.6c0.8-0.9,1.8-1.5,3.2-1.5c1.2,0,1.9,0.7,1.9,1.9c0,0.4-0.1,1-0.1,1.4
			l-1.4,6.7H378l1.3-6.4c0.1-0.4,0.1-0.7,0.1-0.9c0-0.5-0.2-0.6-0.6-0.6c-0.6,0-1.3,0.4-2.1,1.5l-1.3,6.4H373l1.3-6.6
			c0.2-1.1,0.2-1.9,0-2.6L376.6,88.6z"/>
		<path fill="#FFFFFF" d="M388.3,90.7h-1.6l-1,4.9c-0.1,0.3-0.1,0.6-0.1,0.9c0,0.5,0.3,0.7,0.8,0.7c0.2,0,0.6-0.1,0.9-0.2v1.5
			c-0.7,0.3-1.5,0.4-2.1,0.4c-1.4,0-2.2-0.7-2.2-1.7c0-0.3,0-0.8,0.1-1.3l1.1-5.3h-0.9l0.4-1.8h0.9c0.2-1,0.3-1.6,0.6-2.3l2.6-0.7
			c-0.3,0.9-0.6,2-0.8,3h2.2L388.3,90.7z"/>
	</g>
	<g>
		<g>
			<path fill="#FFFFFF" d="M58.3,66.8C53.3,64.3,43,58.3,43,58.3l-0.7,39.2c0,1.3-0.1,1.4-1.1,1.4c-6.2,0-9,0-14.9,0
				c-0.9,0-0.9,0.3-0.9-0.6c0.2-22,1.1-47.6,2-68.1c0.1-1.2,0.6-1.1,1.4-0.7C41,36.4,59.1,46.6,59.1,46.6l0,0c0,0,18-10.2,30.2-17.1
				c0.7-0.4,1.3-0.5,1.4,0.7c0.9,20.5,1.8,46.1,2,68.1c0,0.9,0,0.6-0.9,0.6c-5.8,0-8.6,0-14.9,0c-1,0-1.1-0.1-1.1-1.4l-0.7-39.2
				c0,0-10.3,5.8-15.3,8.5C59,67.3,59.2,67.2,58.3,66.8z"/>
			<g>
				<g>
					<path fill="#FFFFFF" d="M101,98.9c-1,0-1.1-0.2-1.1-1.4c0-18,0-47.4,0-67.1c0-0.9-0.1-1,0.9-1h44.8c1,0,1.1,0.1,1.1,1.3
						c0,5.1,0,8.1,0,12.5c0,0.9-0.3,1.4-1.1,1.4l-28.3-0.3V56H145c0.9,0,1,0.2,1,1.4c0,5,0,8.4,0,12.5c0,1.2-0.1,1.4-1,1.4h-27.7
						v11.9l29-0.3c1.1,0,1.1,0,1.1,1.3c0,5.1,0,9,0,13.2c0,1.2-0.1,1.4-1.1,1.4H101z"/>
					<path fill="#FFFFFF" d="M152.7,83l12.2-5.1c0.9-0.3,0.9-0.3,1.1,0.5c1.2,3.8,5.7,8.3,12,8.3c6.8,0,10-2.2,10-6.9
						c0-4.2-2.9-6.9-12-8c-0.7-0.1-1.7-0.2-2.4-0.3c-12-1.2-20.3-8.2-20.3-20.9c0-13.3,8.8-22.7,26.3-22.7
						c13.2,0,21.3,6.5,23.9,15.1c0.3,1.1-0.1,1.5-0.7,1.7l-11.6,4.8c-0.7,0.3-1,0.1-1.2-0.4c-1.4-4.1-5.9-8.1-11.1-8.1
						c-6.9,0-9.1,2.7-9.1,6.5c0,4.7,3.7,6.7,12.6,8.2c0.9,0.1,2,0.3,3.3,0.5c12.7,1.9,20,8.8,20,21.6c0,15.8-12.6,22.8-28.1,22.8
						c-13.5,0-21.9-5.6-25.3-15.7C151.9,83.9,152,83.4,152.7,83z"/>
					<path fill="#FFFFFF" d="M226.6,89c-1.2,2.9-2.5,6.4-3.5,8.8c-0.3,0.8-0.5,1.1-1.8,1.1c-6.5,0-9.9,0-16.4,0
						c-0.8,0-0.9-0.4-0.5-1.4C214.7,74.8,229,45.3,238,27.9c0.1-0.3,2.3-0.2,2.4,0c9.5,19.2,23,47,33.9,69.6
						c0.6,1.3,0.5,1.4-0.4,1.4c-4.8,0-10.9,0-18.5,0c-0.5,0-0.9-0.1-1.2-0.8c-1.2-2.8-2.7-6.6-3.7-9.1H226.6z M245.3,75.7l-7-15.6
						l-6.7,15.6H245.3z"/>
				</g>
			</g>
			<path fill="#FFFFFF" d="M104.6,17.3L59.1,0l-0.5,0.2l-44.9,17c-0.4,0.1-0.7,0.4-0.7,0.8c-0.1,1.5,0.2,4.5,4.4,15.4
				c2.6,6.9-2.9,12-3.2,12.2c-0.1,0.1-0.1,0.2-0.2,0.2l-4.8,1.4L0,64.7c0,0,4-3.5,6.4-2.1c2.4,1.4,1.5,6.7,1.5,6.7l9.5-17.8L16,46.4
				c1.6-1.8,5.6-7.1,3-13.7c-3-7.9-4.5-12.7-4.3-14.5c0-0.1,0-0.2,0-0.3l44.4,23.8L104.6,17.3z"/>
		</g>
	</g>
	<g>
		<path fill="#FFFFFF" d="M20,100.7c-1,1-2.2,1.5-3.6,1.5c-1.4,0-2.7-0.5-3.7-1.5c-1-1-1.5-2.3-1.5-3.8c0-1.6,0.5-2.9,1.6-3.9
			c1-1,2.2-1.4,3.5-1.4c1.4,0,2.6,0.5,3.6,1.6c1,1,1.5,2.3,1.5,3.8C21.6,98.4,21,99.7,20,100.7z M13.4,93.8
			c-0.8,0.9-1.2,1.9-1.2,3.1c0,1.2,0.4,2.3,1.2,3.1c0.8,0.9,1.8,1.3,3,1.3c1.2,0,2.2-0.4,3-1.3c0.8-0.9,1.2-1.9,1.2-3.1
			c0-1.2-0.4-2.2-1.2-3.1c-0.8-0.9-1.8-1.3-3-1.3C15.2,92.5,14.2,92.9,13.4,93.8z M14.1,99.9V94c0.4,0,0.9,0,1.6,0
			c0.7,0,1.1,0,1.2,0c0.5,0,0.8,0.1,1.1,0.3c0.5,0.3,0.8,0.8,0.8,1.4c0,0.5-0.1,0.9-0.4,1.1c-0.3,0.2-0.6,0.4-1,0.4
			c0.4,0.1,0.6,0.2,0.8,0.3c0.3,0.3,0.5,0.7,0.5,1.3v0.5c0,0.1,0,0.1,0,0.2c0,0.1,0,0.1,0,0.2l0.1,0.2h-1.4c0-0.2-0.1-0.5-0.1-0.8
			c0-0.4-0.1-0.6-0.1-0.7c-0.1-0.2-0.2-0.4-0.4-0.4c-0.1,0-0.3-0.1-0.5-0.1l-0.3,0h-0.3v2.1H14.1z M16.9,95.1C16.7,95,16.4,95,16,95
			h-0.4v1.7h0.6c0.4,0,0.6-0.1,0.8-0.2c0.2-0.1,0.3-0.4,0.3-0.7C17.3,95.5,17.2,95.3,16.9,95.1z"/>
	</g>
	<g>
		<line fill="#FFFFFF" x1="25" y1="110.8" x2="389.1" y2="110.8"/>
		<rect x="25" y="109.9" fill="#FFFFFF" width="364.1" height="1.9"/>
		<g>
			<g>
				<g>
					<path fill="#FFFFFF" d="M19.2,110.7"/>
				</g>
			</g>
		</g>
	</g>
	<g>
		<path fill="#FFFFFF" d="M25,127.4c0-6.4,3.2-10.1,7.9-10.1c5.3,0,7.9,4.4,7.9,10.1c0,6.1-2.8,10.1-7.7,10.1
			C27.6,137.5,25,133.2,25,127.4z M37.2,127.6c0-4.8-1-7.8-4.3-7.8c-3.2,0-4.4,2.7-4.4,7.3c0,5,1.2,7.8,4.4,7.8
			C35.7,135,37.2,132.9,37.2,127.6z"/>
		<path fill="#FFFFFF" d="M63.6,137.2l-1.6-3c-1.3-2.4-2.2-3.8-3.2-4.8c-0.4-0.4-0.6-0.6-1.2-0.6v8.4h-3.1v-19.5h5.8
			c4.2,0,6.1,2.5,6.1,5.6c0,2.8-1.7,5.4-4.7,5.4c0.7,0.4,1.9,2.3,2.9,3.9l2.8,4.7H63.6z M57.5,120.3v6.2h1.6c1.6,0,2.5-0.2,3.1-0.8
			c0.5-0.5,0.8-1.4,0.8-2.4c0-2-1-3-3.8-3H57.5z"/>
		<path fill="#FFFFFF" d="M80.7,137.2v-19.5h10.5l-0.4,2.7h-6.9v5.3h5.8v2.7h-5.8v6.1h7.6v2.8H80.7z"/>
		<path fill="#FFFFFF" d="M112.1,137.4c-2.6,0-4.7-0.9-6.2-2.8c-1.4-1.8-2.1-4-2.1-7.1c0-4,1.2-6.8,3.5-8.6c1.4-1.1,2.8-1.5,4.7-1.5
			c2.2,0,4.1,0.7,5.6,2.1l-1.6,2c-1.3-1-2.5-1.5-4-1.5c-3.5,0-4.8,3.2-4.8,7.7c0,2.7,0.5,4.7,1.4,5.8c0.8,0.9,2.1,1.5,3.6,1.5
			c1,0,1.8-0.2,2.5-0.6v-5.1h-3.2l-0.4-2.7h6.8v9.2C116.2,136.9,114.2,137.4,112.1,137.4z"/>
		<path fill="#FFFFFF" d="M131,127.4c0-6.4,3.2-10.1,7.9-10.1c5.3,0,7.9,4.4,7.9,10.1c0,6.1-2.8,10.1-7.7,10.1
			C133.7,137.5,131,133.2,131,127.4z M143.2,127.6c0-4.8-1-7.8-4.3-7.8c-3.2,0-4.4,2.7-4.4,7.3c0,5,1.2,7.8,4.4,7.8
			C141.8,135,143.2,132.9,143.2,127.6z"/>
		<path fill="#FFFFFF" d="M169.7,137.2l-4.2-9.2c-1-2.2-2-4.6-2.4-5.8l-0.1,0.1c0.1,1.6,0.2,3.7,0.2,5.4l0.1,9.5h-3.1v-19.5h3.5
			l4.6,9.5c0.9,1.8,1.7,4.1,1.9,5l0.1-0.1c-0.1-1-0.3-3.8-0.3-5.6l-0.1-8.9h3v19.5H169.7z"/>
	</g>
</g>
</svg>
